<svg xmlns="http://www.w3.org/2000/svg" width="1200" height="900" viewBox="0 0 1200 900" role="img" aria-label="اکوسیستم تخصصی Auto Makhsus">
  <defs>
    <linearGradient id="bg" x1="0" y1="0" x2="1" y2="1">
      <stop offset="0" stop-color="#07111F"/>
      <stop offset="0.55" stop-color="#0B1220"/>
      <stop offset="1" stop-color="#0B5CFF"/>
    </linearGradient>
    <linearGradient id="glass" x1="0" y1="0" x2="1" y2="1">
      <stop offset="0" stop-color="#FFFFFF" stop-opacity="0.28"/>
      <stop offset="1" stop-color="#8FD3FF" stop-opacity="0.06"/>
    </linearGradient>
  </defs>
  <rect width="1200" height="900" rx="58" fill="url(#bg)"/>
  <path d="M120 655 C230 458 386 360 588 360 C790 360 955 470 1082 656" fill="none" stroke="#8FD3FF" stroke-width="16" stroke-linecap="round" opacity="0.68"/>
  <path d="M210 640 H1000" stroke="#2F80ED" stroke-width="10" stroke-linecap="round"/>
  <circle cx="355" cy="672" r="64" fill="#07111F" stroke="#8FD3FF" stroke-width="10"/>
  <circle cx="845" cy="672" r="64" fill="#07111F" stroke="#8FD3FF" stroke-width="10"/>
  <path d="M338 515 C412 448 500 414 602 414 C704 414 786 448 862 515 Z" fill="url(#glass)" stroke="#FFFFFF" stroke-opacity="0.32" stroke-width="4"/>
  <rect x="178" y="124" width="844" height="144" rx="36" fill="#FFFFFF" fill-opacity="0.08" stroke="#8FD3FF" stroke-opacity="0.32"/>
  <text x="970" y="210" direction="rtl" text-anchor="end" font-family="Arial, sans-serif" font-size="58" font-weight="900" fill="#FFFFFF">Auto Makhsus</text>
  <text x="970" y="264" direction="rtl" text-anchor="end" font-family="Arial, sans-serif" font-size="28" font-weight="700" fill="#8FD3FF">اکوسیستم خودرو، سرویس و طراحی داخلی</text>
  <g fill="#FFFFFF" fill-opacity="0.78">
    <circle cx="196" cy="376" r="7"/>
    <circle cx="254" cy="334" r="7"/>
    <circle cx="996" cy="354" r="7"/>
    <circle cx="1048" cy="406" r="7"/>
  </g>
</svg>
