<svg xmlns="http://www.w3.org/2000/svg" width="1000" height="740" viewBox="0 0 1000 740" role="img" aria-label="پلتفرم دیجیتال Auto Makhsus">
  <defs>
    <linearGradient id="panel" x1="0" y1="0" x2="1" y2="1">
      <stop offset="0" stop-color="#07111F"/>
      <stop offset="1" stop-color="#0B5CFF"/>
    </linearGradient>
  </defs>
  <rect width="1000" height="740" rx="48" fill="#0B1220"/>
  <rect x="86" y="82" width="828" height="576" rx="40" fill="url(#panel)" stroke="#8FD3FF" stroke-opacity="0.35" stroke-width="4"/>
  <rect x="132" y="138" width="300" height="192" rx="28" fill="#FFFFFF" fill-opacity="0.11"/>
  <rect x="472" y="138" width="396" height="84" rx="22" fill="#FFFFFF" fill-opacity="0.12"/>
  <rect x="472" y="246" width="396" height="84" rx="22" fill="#FFFFFF" fill-opacity="0.08"/>
  <rect x="132" y="372" width="216" height="194" rx="26" fill="#8FD3FF" fill-opacity="0.18"/>
  <rect x="388" y="372" width="216" height="194" rx="26" fill="#2F80ED" fill-opacity="0.22"/>
  <rect x="644" y="372" width="224" height="194" rx="26" fill="#FFFFFF" fill-opacity="0.1"/>
  <path d="M174 258 H390 M174 218 H346 M174 178 H300" stroke="#8FD3FF" stroke-width="12" stroke-linecap="round"/>
  <path d="M520 180 H812 M520 288 H770" stroke="#FFFFFF" stroke-width="12" stroke-linecap="round" opacity="0.72"/>
  <circle cx="240" cy="470" r="42" fill="#8FD3FF" opacity="0.72"/>
  <circle cx="496" cy="470" r="42" fill="#2F80ED" opacity="0.88"/>
  <circle cx="756" cy="470" r="42" fill="#FFFFFF" opacity="0.52"/>
</svg>
