<svg xmlns="http://www.w3.org/2000/svg" width="1600" height="1100" viewBox="0 0 1600 1100" role="img" aria-labelledby="title desc">
  <title id="title">Premium Auto Makhsus car parts store visual</title>
  <desc id="desc">Original premium car parts catalog illustration with product packshots, technical labels, and buy plus install workflow.</desc>
  <defs>
    <linearGradient id="bg" x1="0" x2="1" y1="0" y2="1">
      <stop offset="0" stop-color="#050a14"/>
      <stop offset=".45" stop-color="#0a1d39"/>
      <stop offset="1" stop-color="#0b5cff"/>
    </linearGradient>
    <linearGradient id="metal" x1="0" x2="1" y1="0" y2="1">
      <stop offset="0" stop-color="#f8fbff"/>
      <stop offset=".28" stop-color="#8fd3ff"/>
      <stop offset=".62" stop-color="#2f80ed"/>
      <stop offset="1" stop-color="#07111f"/>
    </linearGradient>
    <filter id="blur" x="-30%" y="-30%" width="160%" height="160%">
      <feGaussianBlur stdDeviation="24"/>
    </filter>
  </defs>
  <rect width="1600" height="1100" fill="url(#bg)"/>
  <g opacity=".2">
    <path d="M0 190h1600M0 366h1600M0 542h1600M0 718h1600M0 894h1600" stroke="#8fd3ff"/>
    <path d="M190 0v1100M380 0v1100M570 0v1100M760 0v1100M950 0v1100M1140 0v1100M1330 0v1100" stroke="#8fd3ff"/>
  </g>
  <circle cx="1090" cy="230" r="300" fill="#8fd3ff" opacity=".22" filter="url(#blur)"/>
  <g transform="translate(118 150)">
    <rect width="566" height="795" fill="#f8fbff" opacity=".08" stroke="#8fd3ff" stroke-opacity=".34"/>
    <text x="44" y="70" fill="#8fd3ff" font-family="Arial, sans-serif" font-size="22" font-weight="900" letter-spacing="2">PARTS CATALOG</text>
    <g transform="translate(54 138)">
      <rect width="205" height="205" fill="#07111f" stroke="#fff" stroke-opacity=".18"/>
      <circle cx="102" cy="104" r="64" fill="none" stroke="url(#metal)" stroke-width="22"/>
      <text x="42" y="184" fill="#fff" font-family="Arial" font-size="24" font-weight="900">Oil Filter</text>
    </g>
    <g transform="translate(304 138)">
      <rect width="205" height="205" fill="#07111f" stroke="#fff" stroke-opacity=".18"/>
      <path d="M54 70h96l26 64H80z" fill="url(#metal)"/>
      <circle cx="82" cy="140" r="23" fill="#06101f" stroke="#8fd3ff" stroke-width="8"/>
      <circle cx="150" cy="140" r="23" fill="#06101f" stroke="#8fd3ff" stroke-width="8"/>
      <text x="61" y="184" fill="#fff" font-family="Arial" font-size="24" font-weight="900">Brake</text>
    </g>
    <g transform="translate(54 388)">
      <rect width="205" height="205" fill="#07111f" stroke="#fff" stroke-opacity=".18"/>
      <rect x="62" y="58" width="82" height="96" rx="16" fill="url(#metal)"/>
      <path d="M52 164h102M52 48h102" stroke="#8fd3ff" stroke-width="8" stroke-linecap="round"/>
      <text x="48" y="184" fill="#fff" font-family="Arial" font-size="24" font-weight="900">Module</text>
    </g>
    <g transform="translate(304 388)">
      <rect width="205" height="205" fill="#07111f" stroke="#fff" stroke-opacity=".18"/>
      <path d="M62 62l94 25-24 80-93-24z" fill="url(#metal)"/>
      <circle cx="99" cy="112" r="18" fill="#06101f"/>
      <text x="61" y="184" fill="#fff" font-family="Arial" font-size="24" font-weight="900">Sensor</text>
    </g>
  </g>
  <g transform="translate(760 220)">
    <text x="0" y="0" fill="#8fd3ff" font-family="Arial, sans-serif" font-size="24" font-weight="900" letter-spacing="2">BUY + INSTALL</text>
    <text x="0" y="90" fill="#fff" font-family="Arial, sans-serif" font-size="84" font-weight="900">OEM / Aftermarket</text>
    <text x="0" y="158" fill="#d9efff" font-family="Arial, sans-serif" font-size="46" font-weight="900">fitment checked before install</text>
    <g transform="translate(0 230)">
      <rect width="680" height="115" fill="#fff" opacity=".1" stroke="#fff" stroke-opacity=".18"/>
      <text x="36" y="72" fill="#fff" font-family="Arial" font-size="34" font-weight="900">Vehicle Compatibility</text>
      <text x="472" y="72" fill="#8fd3ff" font-family="Arial" font-size="34" font-weight="900">CRM</text>
    </g>
    <g transform="translate(0 380)">
      <rect width="210" height="145" fill="#07111f" stroke="#8fd3ff" stroke-opacity=".35"/>
      <rect x="235" width="210" height="145" fill="#07111f" stroke="#8fd3ff" stroke-opacity=".35"/>
      <rect x="470" width="210" height="145" fill="#07111f" stroke="#8fd3ff" stroke-opacity=".35"/>
      <text x="36" y="86" fill="#fff" font-family="Arial" font-size="30" font-weight="900">OEM</text>
      <text x="270" y="86" fill="#fff" font-family="Arial" font-size="30" font-weight="900">Used</text>
      <text x="506" y="86" fill="#fff" font-family="Arial" font-size="30" font-weight="900">Special</text>
    </g>
  </g>
</svg>
